<?xml version="1.0" encoding="UTF-8" standalone="no"?>
<svg
   width="126"
   height="126"
   viewBox="0 0 126 126"
   fill="none"
   version="1.1"
   id="svg10"
   sodipodi:docname="Group 742 (1).svg"
   inkscape:version="1.2.1 (9c6d41e410, 2022-07-14)"
   xmlns:inkscape="http://www.inkscape.org/namespaces/inkscape"
   xmlns:sodipodi="http://sodipodi.sourceforge.net/DTD/sodipodi-0.dtd"
   xmlns="http://www.w3.org/2000/svg"
   xmlns:svg="http://www.w3.org/2000/svg">
  <defs
     id="defs14" />
  <sodipodi:namedview
     id="namedview12"
     pagecolor="#ffffff"
     bordercolor="#000000"
     borderopacity="0.25"
     inkscape:showpageshadow="2"
     inkscape:pageopacity="0.0"
     inkscape:pagecheckerboard="0"
     inkscape:deskcolor="#d1d1d1"
     showgrid="false"
     inkscape:zoom="7.4920635"
     inkscape:cx="53.056144"
     inkscape:cy="51.654661"
     inkscape:window-width="2880"
     inkscape:window-height="1514"
     inkscape:window-x="-11"
     inkscape:window-y="-11"
     inkscape:window-maximized="1"
     inkscape:current-layer="svg10" />
  <g
     id="g1844">
    <path
       d="M60.3969 76.816L61.3149 75.902V83.9576L60.4069 84.8616H60.3969V84.8696L56.6222 88.6302L56.6182 88.6342L52.4136 92.8207L52.3895 92.8449L47.7229 97.4934L47.7229 89.4358L52.3172 84.8616L52.4136 84.7651L56.3992 80.7976L56.6222 80.5746L60.188 77.0249L60.3969 76.816Z"
       fill="#0C3148"
       id="path2" />
    <path
       d="M91.3494 46.5367V46.5969C91.3494 47.8686 91.2189 49.1101 90.9698 50.3094L90.799 51.0526C90.4957 52.26 90.0718 53.4211 89.5395 54.52L89.5234 54.5521C88.8042 56.0306 87.842 57.3766 86.6768 58.5337L84.9713 60.2272L81.1705 63.9999L80.8229 64.3434L80.4071 64.7552L77.0482 68.0899L76.9277 68.2085L76.1945 68.9377V61.1894L79.1033 58.2926L79.1857 58.2103L82.639 54.52C82.8961 54.2447 83.1271 53.9474 83.332 53.632L83.336 53.626C83.4104 53.5135 83.4807 53.399 83.551 53.2825C83.6896 53.0535 83.8202 52.8184 83.9427 52.5794C84.1476 52.1796 84.3324 51.7678 84.4952 51.3439C84.5594 51.1732 84.6217 51.0024 84.678 50.8296C84.7362 50.6589 84.7905 50.4841 84.8407 50.3094C85.1541 49.2125 85.3208 48.0574 85.3208 46.8621C85.3208 46.7536 85.3188 46.6452 85.3168 46.5367C85.2806 45.1666 85.0275 43.8548 84.5856 42.6314C84.1878 41.5225 83.6374 40.49 82.9604 39.5538C82.7896 39.3128 82.6108 39.0837 82.422 38.8587H82.42C82.193 38.5835 81.9539 38.3224 81.7048 38.0693C81.6425 38.005 81.5783 37.9427 81.516 37.8824C81.3874 37.7579 81.2568 37.6373 81.1243 37.5188C80.7928 37.2235 80.4453 36.9463 80.0817 36.6871C79.937 36.5827 79.7904 36.4822 79.6397 36.3858C79.491 36.2874 79.3384 36.193 79.1857 36.1026C78.2074 35.522 77.1447 35.07 76.0177 34.7747C75.6762 34.6843 75.3286 34.608 74.9771 34.5477C74.28 34.4251 73.5608 34.3629 72.8296 34.3629C72.2772 34.3629 71.7348 34.399 71.2024 34.4693C70.6701 34.5376 70.1498 34.6401 69.6415 34.7747C68.7656 35.0057 67.9279 35.3291 67.1405 35.7329C66.6342 35.9921 66.1461 36.2854 65.684 36.6128C65.2883 36.888 64.9086 37.1874 64.549 37.5068C64.549 37.5068 64.545 37.5088 64.543 37.5128C64.5329 37.5228 64.5209 37.5309 64.5128 37.5429C64.5008 37.551 64.4928 37.563 64.4807 37.5711C64.328 37.7077 64.1794 37.8483 64.0347 37.9909C63.87 38.1536 63.7093 38.3204 63.5546 38.4931C63.5546 38.4931 63.5506 38.4992 63.5466 38.5012C63.5466 38.5012 63.5365 38.5132 63.5325 38.5172L63.3658 38.682L63.189 38.8567L59.3862 42.6294L59.3842 42.6314L55.4508 46.5367L51.65 50.3094L51.3025 50.6529L47.5278 54.3994L47.4072 54.518H47.4052L46.7303 55.1909L46.7303 47.3342L47.5278 46.5427L47.5338 46.5367L51.3025 42.7982L51.4692 42.6314L55.272 38.8587L55.3825 38.7483L59.1572 35.0037V35.0158C59.1793 34.9896 59.1994 34.9655 59.2215 34.9394C59.2235 34.9374 59.2235 34.9354 59.2255 34.9354L59.3862 34.7767L60.3605 33.8104L60.9973 33.1796C61.7185 32.4645 62.512 31.8277 63.3678 31.2792C63.5124 31.1848 63.6611 31.0944 63.8097 31.004C64.8564 30.3732 65.9713 29.8429 67.1425 29.4331C68.4362 28.9751 69.7962 28.6617 71.2044 28.513C71.8513 28.4407 72.5102 28.4045 73.1771 28.4045C73.3579 28.4045 73.5367 28.4065 73.7175 28.4126C74.1414 28.4246 74.5633 28.4528 74.9791 28.4929C76.4396 28.6376 77.8498 28.953 79.1877 29.4251C80.3669 29.8369 81.4919 30.3672 82.5445 31.004C82.6852 31.0884 82.8238 31.1748 82.9624 31.2632C84.3646 32.1611 85.6362 33.2479 86.7391 34.4874C86.8255 34.5818 86.9098 34.6783 86.9922 34.7767C88.0448 36.0061 88.9348 37.3782 89.6298 38.8587C90.122 39.9034 90.5178 41.0002 90.803 42.1413L90.9175 42.6314C91.1687 43.7544 91.3153 44.9155 91.3474 46.1048C91.3515 46.2494 91.3535 46.392 91.3535 46.5367H91.3494Z"
       fill="#0C3148"
       id="path4" />
    <g
       id="g295">
      <path
         id="path287"
         d="M 42.554688 37.642578 L 39.25 40.919922 L 38.964844 41.189453 L 38.78125 41.384766 L 34.572266 45.560547 L 34.572266 76.341797 L 34.544922 79.050781 C 34.544922 81.208279 37.048242 82.462891 38.619141 82.462891 C 38.673441 82.462891 38.72695 82.460984 38.78125 82.458984 C 39.787649 82.420884 40.701666 82.012181 41.384766 81.363281 L 41.5 81.25 L 42.501953 80.261719 L 42.554688 80.208984 L 50.392578 72.482422 L 50.599609 72.277344 L 54.425781 68.505859 L 54.601562 68.333984 L 58.375 64.613281 L 58.568359 64.423828 L 62.394531 60.650391 L 62.455078 60.589844 L 64.335938 58.736328 L 64.335938 95.949219 L 68.003906 92.308594 L 68.005859 92.308594 L 68.919922 91.400391 L 72.224609 88.123047 L 72.224609 48.470703 L 72.222656 48.470703 C 72.222656 47.847904 72.086556 47.227993 71.785156 46.683594 L 71.779297 46.671875 L 71.775391 46.667969 C 71.453991 46.091469 70.993899 45.6036 70.4375 45.25 C 70.3913 45.2199 70.343222 45.190356 70.294922 45.160156 L 70.292969 45.160156 C 70.061969 45.027656 69.815693 44.916431 69.558594 44.832031 C 69.162894 44.699431 68.736875 44.626953 68.296875 44.626953 C 67.856975 44.626953 67.430956 44.699431 67.035156 44.832031 C 66.749957 44.926431 66.481615 45.052478 66.228516 45.205078 C 66.087916 45.291478 65.950865 45.387834 65.822266 45.490234 L 65.822266 45.492188 C 65.581166 45.681087 65.480465 45.781782 65.197266 46.113281 C 65.195266 46.113281 65.195312 46.117188 65.195312 46.117188 L 65.193359 46.117188 L 64.806641 46.501953 L 64.335938 46.966797 L 54.787109 56.439453 L 54.601562 56.626953 L 50.544922 60.650391 L 50.392578 60.800781 L 46.742188 64.423828 L 46.617188 64.548828 L 42.628906 68.505859 L 42.554688 68.505859 L 42.554688 37.642578 z M 67.888672 53.892578 C 68.113835 54.130643 68.311722 54.396877 68.472656 54.685547 L 68.470703 54.685547 C 68.309953 54.397247 68.113409 54.13039 67.888672 53.892578 z M 61.888672 54.132812 L 61.890625 54.132812 C 61.890497 54.13358 61.890625 54.134766 61.890625 54.134766 L 61.888672 54.134766 L 61.888672 54.132812 z M 68.474609 54.689453 L 68.476562 54.689453 L 68.482422 54.701172 C 68.566435 54.85292 68.634345 55.011821 68.693359 55.173828 C 68.628212 55.007587 68.560569 54.843733 68.474609 54.689453 z "
         style="fill:#ffd600;fill-opacity:1" />
    </g>
  </g>
</svg>
