<svg width="187" height="226" viewBox="0 0 187 226" fill="none" xmlns="http://www.w3.org/2000/svg">
<g filter="url(#filter0_d_29_9)">
<path d="M85.3318 152.302L88.22 149.426V174.769L85.3634 177.613H85.3318V177.638L73.4567 189.469L73.444 189.482L60.2165 202.653L60.1406 202.728L45.4595 217.353L45.4595 192.003L59.9131 177.613L60.2165 177.31L72.7552 164.828L73.4567 164.126L84.6745 152.959L85.3318 152.302Z" fill="#0C3148"/>
<path d="M104.405 14.2827L103.685 15.0032L104.399 14.2827H104.405Z" fill="#1D1D1B" stroke="white" stroke-miterlimit="10"/>
<path d="M178.569 51.469V51.678H178.36L178.569 51.469Z" fill="#1D1D1B" stroke="white" stroke-miterlimit="10"/>
<path d="M182.708 57.0433V57.2328C182.708 61.2333 182.297 65.1391 181.513 68.912L180.976 71.2504C180.022 75.0487 178.688 78.7016 177.014 82.1586L176.963 82.2597C174.701 86.9111 171.673 91.1455 168.008 94.7857L162.642 100.113L150.685 111.982L149.592 113.063L148.283 114.358L137.716 124.85L137.337 125.222L135.031 127.517L135.031 103.141L144.182 94.0274L144.441 93.7682L155.305 82.1586C156.114 81.2927 156.841 80.3574 157.485 79.3652L157.498 79.3462C157.732 78.9923 157.953 78.6321 158.174 78.2655C158.61 77.545 159.021 76.8056 159.406 76.0535C160.051 74.7959 160.632 73.5003 161.144 72.1668C161.347 71.6296 161.543 71.0924 161.719 70.5489C161.903 70.0117 162.073 69.4619 162.231 68.912C163.217 65.4614 163.742 61.8274 163.742 58.0671C163.742 57.7258 163.736 57.3845 163.729 57.0433C163.615 52.7331 162.819 48.6062 161.429 44.7573C160.177 41.2688 158.446 38.0203 156.316 35.0753C155.779 34.3169 155.216 33.5964 154.622 32.8886H154.616C153.902 32.0227 153.15 31.2011 152.366 30.4048C152.17 30.2026 151.968 30.0067 151.772 29.8171C151.367 29.4253 150.957 29.0461 150.54 28.6732C149.497 27.7442 148.403 26.872 147.26 26.0567C146.805 25.7281 146.343 25.4121 145.869 25.1088C145.401 24.7991 144.921 24.502 144.441 24.2176C141.363 22.3912 138.02 20.9692 134.474 20.0402C133.4 19.7558 132.307 19.5156 131.201 19.326C129.008 18.9405 126.745 18.7446 124.445 18.7446C122.707 18.7446 121 18.8584 119.326 19.0796C117.651 19.2944 116.014 19.6168 114.415 20.0402C111.66 20.767 109.024 21.7845 106.547 23.0548C104.954 23.8701 103.418 24.7928 101.965 25.8229C100.72 26.6887 99.5253 27.6304 98.394 28.6353C98.394 28.6353 98.3814 28.6416 98.3751 28.6542C98.3435 28.6858 98.3055 28.7111 98.2803 28.749C98.2423 28.7743 98.2171 28.8122 98.1791 28.8375C97.6988 29.2673 97.2312 29.7096 96.7761 30.1584C96.2579 30.6703 95.7523 31.1948 95.2657 31.7383C95.2657 31.7383 95.253 31.7573 95.2404 31.7636C95.2404 31.7636 95.2088 31.8015 95.1961 31.8142L94.6716 32.3324L94.1154 32.8822L82.1519 44.751L82.1455 44.7573L69.7711 57.0433L57.8139 68.912L56.7205 69.9927L44.8454 81.7794L44.4662 82.1523H44.4599L42.3364 84.2694L42.3364 59.5523L44.8454 57.0622L44.8644 57.0433L56.7205 45.2819L57.2451 44.7573L69.2087 32.8886L69.5563 32.541L81.4314 20.7607V20.7986C81.5009 20.7164 81.5641 20.6406 81.6336 20.5584C81.6399 20.5521 81.6399 20.5458 81.6463 20.5458L82.1519 20.0465L85.217 17.0066L87.2204 15.0222C89.4893 12.7723 91.9856 10.7689 94.6779 9.04355C95.1329 8.74651 95.6006 8.46211 96.0683 8.17772C99.361 6.19327 102.869 4.52481 106.553 3.23555C110.623 1.79461 114.902 0.808704 119.332 0.341031C121.367 0.113514 123.44 -0.000244141 125.538 -0.000244141C126.107 -0.000244141 126.669 0.00607577 127.238 0.0250355C128.572 0.0629549 129.899 0.151434 131.207 0.277832C135.802 0.732865 140.238 1.72509 144.447 3.21027C148.157 4.50585 151.696 6.17431 155.008 8.17772C155.45 8.44315 155.886 8.71491 156.322 8.99299C160.734 11.818 164.734 15.2371 168.204 19.1364C168.475 19.4335 168.741 19.7368 169 20.0465C172.312 23.9143 175.111 28.2308 177.298 32.8886C178.846 36.1749 180.091 39.6256 180.989 43.2153L181.349 44.7573C182.139 48.2902 182.6 51.9431 182.702 55.6845C182.714 56.1395 182.721 56.5882 182.721 57.0433H182.708Z" fill="#0C3148"/>
<path d="M112.146 86.6643L112.146 198.186L109.271 201.042H109.264L103.684 206.578L97.7242 212.494L97.7242 95.4238L91.8088 101.257L91.6192 101.447L79.5798 113.315L78.973 113.91L67.0979 125.62L66.5481 126.158L54.5087 138.026L53.8577 138.671L41.9827 150.375L41.0726 151.273L35.2583 157.005L29.1975 162.977L29.0332 163.142L25.8795 166.251L25.5193 166.605C23.3705 168.646 20.495 169.936 17.3287 170.056C17.1581 170.062 16.9874 170.068 16.8168 170.068C11.8746 170.068 4 166.118 4 159.331L4.08848 150.812L4.08848 53.9733L17.3287 40.8342L17.9038 40.2211L18.8012 39.3743L18.8012 151.38H19.0351L24.862 145.598L31.5864 138.93L31.9782 138.538L43.4615 127.143L43.9418 126.669L56.7017 114.011L57.2894 113.423L68.5768 102.224L69.253 101.554L81.4125 89.4893L82.1393 88.7689L87.328 83.6181L88.8068 82.1582L90.0266 80.9448H90.0329C90.0329 80.9448 90.0329 80.9322 90.0392 80.9322C90.6143 80.2117 91.2779 79.5544 92.0047 78.9793L92.011 78.973C92.4155 78.6507 92.8452 78.3473 93.2876 78.0756C94.0839 77.5953 94.9308 77.1971 95.8282 76.9001C97.0733 76.483 98.4131 76.2554 99.7971 76.2554C101.181 76.2554 102.521 76.483 103.766 76.9001C104.575 77.1655 105.346 77.5194 106.073 77.9365C106.224 78.0313 106.376 78.1261 106.522 78.2209C108.272 79.3332 109.719 80.8627 110.731 82.6765L110.743 82.6891C111.419 83.9025 111.9 85.2424 112.14 86.6643H112.146Z" fill="#FFD600"/>
<path d="M122.537 144.896L122.486 132.471" stroke="white" stroke-miterlimit="10"/>
<path d="M122.378 107.855L122.346 99.5823" stroke="white" stroke-miterlimit="10"/>
<path d="M122.543 63.1293L122.543 187.872L116.924 193.446L112.146 198.186L112.146 88.352C112.146 86.3929 111.717 84.44 110.769 82.7273C110.762 82.7146 110.756 82.702 110.75 82.6894L110.737 82.6767C109.726 80.8629 108.279 79.3335 106.528 78.2212C106.383 78.1264 106.231 78.0316 106.079 77.9431H106.073C105.346 77.5197 104.575 77.1658 103.766 76.9003C102.521 76.4832 101.181 76.2557 99.7972 76.2557C98.4131 76.2557 97.0733 76.4832 95.8283 76.9003C94.9309 77.1974 94.084 77.5955 93.2877 78.0758C92.8453 78.3476 92.4155 78.6509 92.0111 78.9733L92.0047 78.9796C91.278 79.5547 90.6144 80.212 90.0393 80.9324L90.0329 80.9388H90.0266L88.8069 82.1585L87.328 83.6184L82.1394 88.7691L81.4126 89.4896L69.2531 101.554L68.5769 102.224L57.2895 113.423L56.7017 114.011L43.9418 126.67L43.4615 127.144L42.3303 128.269L31.9783 138.538L31.5864 138.93L24.8621 145.598L19.0351 151.381H18.8013L18.8015 39.3744L29.1978 29.0603L29.1975 126.158H29.4314L35.2583 120.375L41.9827 113.708L42.3303 113.36L42.3745 113.316L53.8578 101.921L54.3381 101.447L67.098 88.7881L67.6857 88.2003L78.9731 77.0014L79.6493 76.3315L91.8088 64.2668L92.5356 63.5464L97.7243 58.3956L99.2031 56.9357L100.423 55.7223H100.429C100.429 55.7223 100.429 55.7097 100.436 55.7097C101.326 54.667 101.642 54.351 102.401 53.7568V53.7505C102.805 53.4282 103.235 53.1248 103.678 52.8531C104.474 52.3728 105.321 51.9746 106.218 51.6776C107.463 51.2605 108.803 51.033 110.187 51.033C111.571 51.033 112.911 51.2605 114.156 51.6776C114.965 51.943 115.736 52.2969 116.463 52.7141H116.469C116.621 52.8089 116.772 52.9037 116.918 52.9984C118.668 54.1108 120.116 55.6402 121.127 57.454C121.127 57.454 121.131 57.4582 121.14 57.4666C121.14 57.4666 121.152 57.4919 121.159 57.5045C122.106 59.2172 122.536 61.1701 122.536 63.1293H122.543Z" fill="#FFD600"/>
</g>
<defs>
<filter id="filter0_d_29_9" x="0" y="-0.000244141" width="186.721" height="225.353" filterUnits="userSpaceOnUse" color-interpolation-filters="sRGB">
<feFlood flood-opacity="0" result="BackgroundImageFix"/>
<feColorMatrix in="SourceAlpha" type="matrix" values="0 0 0 0 0 0 0 0 0 0 0 0 0 0 0 0 0 0 127 0" result="hardAlpha"/>
<feOffset dy="4"/>
<feGaussianBlur stdDeviation="2"/>
<feComposite in2="hardAlpha" operator="out"/>
<feColorMatrix type="matrix" values="0 0 0 0 0 0 0 0 0 0 0 0 0 0 0 0 0 0 0.25 0"/>
<feBlend mode="normal" in2="BackgroundImageFix" result="effect1_dropShadow_29_9"/>
<feBlend mode="normal" in="SourceGraphic" in2="effect1_dropShadow_29_9" result="shape"/>
</filter>
</defs>
</svg>
